<svg data-v-fde0c5aa="" xmlns="http://www.w3.org/2000/svg" viewBox="0 0 300 300" class="font"><!----><defs data-v-fde0c5aa=""><!----></defs><rect data-v-fde0c5aa="" fill="#F2F6EF" x="0" y="0" width="300px" height="300px" class="logo-background-square"></rect><defs data-v-fde0c5aa=""><linearGradient data-v-fde0c5aa="" gradientTransform="rotate(25)" id="78b9c653-32c8-4237-b2b6-a4a7e7aed74e" x1="0%" y1="0%" x2="100%" y2="0%"><stop data-v-fde0c5aa="" offset="0%" stop-color="#4F7E48" stop-opacity="1"></stop><stop data-v-fde0c5aa="" offset="100%" stop-color="#CAE6A5" stop-opacity="1"></stop></linearGradient></defs><g data-v-fde0c5aa="" id="521aa5e6-e747-4405-895f-dcc3be072909" fill="url(#78b9c653-32c8-4237-b2b6-a4a7e7aed74e)" transform="matrix(2.331742603169428,0,0,2.331742603169428,38.43783456923816,137.3114972822213)"><path d="M8.01 0.56L8.01 0.56C7.35 0.29 6.65 0.15 5.94 0.15C2.41 0.15 0.66 2.81 0.67 5.47C0.69 8.09 2.45 10.71 5.94 10.71C6.65 10.71 7.35 10.57 8.01 10.30C8.57 10.08 8.22 9.21 7.64 9.45C7.10 9.66 6.54 9.79 5.94 9.79C3.07 9.79 1.60 7.64 1.58 5.45C1.58 2.98 3.37 1.08 5.89 1.08C6.50 1.08 7.08 1.19 7.64 1.43C8.22 1.65 8.57 0.80 8.01 0.56ZM7.36 7.50L7.36 7.50C6.89 7.77 6.37 7.88 5.88 7.87C4.68 7.83 3.60 6.99 3.60 5.45C3.60 3.26 5.74 2.46 7.36 3.36C7.90 3.67 8.34 2.84 7.80 2.56C5.53 1.29 2.67 2.56 2.67 5.45C2.67 7.52 4.19 8.78 5.89 8.81C6.54 8.82 7.20 8.67 7.80 8.32C8.34 8.02 7.90 7.22 7.36 7.50ZM12.60 7.84L12.60 7.84L13.96 7.84C14.22 7.84 14.45 7.63 14.45 7.36C14.45 7.29 14.43 7.24 14.41 7.18L13.72 5.50C13.62 5.28 13.36 5.17 13.10 5.26C12.88 5.35 12.77 5.63 12.85 5.87L13.27 6.90L12.60 6.90C12.35 6.90 12.14 7.10 12.14 7.36C12.14 7.63 12.35 7.84 12.60 7.84ZM11.91 10.26L11.91 10.26L12.15 9.72L14.42 9.72L14.64 10.26C14.74 10.51 15.02 10.61 15.26 10.53C15.50 10.42 15.60 10.15 15.51 9.91L15.18 9.10C15.12 8.92 14.94 8.76 14.73 8.76L11.83 8.76L11.83 8.76C11.66 8.76 11.48 8.89 11.40 9.06L11.06 9.91C10.96 10.15 11.07 10.42 11.31 10.53C11.56 10.61 11.83 10.50 11.91 10.26ZM9.91 10.26L9.91 10.26L13.29 1.76L16.66 10.26C16.76 10.50 17.04 10.61 17.28 10.53C17.51 10.42 17.63 10.15 17.53 9.91L13.72 0.36C13.68 0.25 13.59 0.14 13.45 0.10C13.23 0 12.95 0.11 12.85 0.36L9.03 9.91C8.95 10.15 9.07 10.42 9.30 10.53C9.53 10.61 9.80 10.50 9.91 10.26ZM24.49 2.23L24.49 2.23L22.13 2.23C21.88 2.23 21.67 2.44 21.67 2.70L21.67 10.16C21.67 10.43 21.88 10.64 22.13 10.64C22.40 10.64 22.61 10.43 22.61 10.16L22.61 3.15L24.49 3.15C24.74 3.15 24.93 2.95 24.93 2.70C24.93 2.44 24.74 2.23 24.49 2.23ZM17.95 1.29L17.95 1.29L24.49 1.29C24.74 1.29 24.93 1.08 24.93 0.83C24.93 0.56 24.74 0.36 24.49 0.36L17.95 0.36C17.68 0.36 17.47 0.56 17.47 0.83C17.47 1.08 17.68 1.29 17.95 1.29ZM17.95 3.15L17.95 3.15L19.80 3.15L19.80 10.16C19.80 10.43 20.02 10.64 20.27 10.64C20.54 10.64 20.75 10.43 20.75 10.16L20.75 2.70C20.75 2.44 20.54 2.23 20.27 2.23L17.95 2.23C17.68 2.23 17.47 2.44 17.47 2.70C17.47 2.95 17.68 3.15 17.95 3.15ZM29.71 8.78L29.71 8.78C31.63 8.78 32.90 7.34 32.90 5.49C32.90 3.65 31.63 2.21 29.71 2.21L28.78 2.21C28.53 2.21 28.32 2.42 28.32 2.69L28.32 6.43C28.32 6.69 28.53 6.90 28.78 6.90C29.05 6.90 29.25 6.69 29.25 6.43L29.25 3.15L29.71 3.15C31.09 3.15 31.98 4.17 31.98 5.49C31.98 6.82 31.09 7.84 29.71 7.84L28.78 7.84C28.53 7.84 28.32 8.05 28.32 8.30C28.32 8.57 28.53 8.78 28.78 8.78ZM27.38 10.18L27.38 10.18L27.38 1.29L29.71 1.29C32.21 1.29 33.92 3.05 33.92 5.49C33.92 7.94 32.21 9.70 29.71 9.70L28.77 9.70C28.52 9.70 28.31 9.91 28.31 10.18C28.31 10.43 28.52 10.64 28.77 10.64L29.71 10.64C32.75 10.64 34.86 8.46 34.86 5.49C34.86 2.53 32.75 0.35 29.71 0.35L26.91 0.35C26.66 0.35 26.45 0.56 26.45 0.81L26.45 10.18C26.45 10.43 26.66 10.64 26.91 10.64C27.17 10.64 27.38 10.43 27.38 10.18ZM46.89 3.88L46.89 3.88C46.54 2.77 45.84 1.83 44.93 1.16C44.02 0.52 42.92 0.14 41.72 0.14C34.62 0.14 34.62 10.82 41.72 10.82C42.92 10.82 44.02 10.43 44.93 9.79C45.84 9.13 46.54 8.18 46.89 7.08C46.96 6.83 46.83 6.55 46.58 6.48C46.33 6.41 46.05 6.54 45.98 6.79C45.68 7.70 45.12 8.47 44.35 9.02C43.62 9.55 42.71 9.86 41.72 9.86C35.88 9.86 35.88 1.09 41.72 1.09C42.71 1.09 43.62 1.41 44.35 1.93C45.12 2.49 45.68 3.26 45.98 4.16C46.05 4.41 46.33 4.55 46.58 4.47C46.83 4.40 46.96 4.13 46.89 3.88ZM38.84 7.17L38.84 7.17C39.13 7.69 39.55 8.12 40.05 8.43C40.56 8.71 41.13 8.88 41.72 8.88C42.66 8.88 43.50 8.50 44.11 7.87C44.70 7.25 45.08 6.41 45.08 5.47C45.08 4.54 44.70 3.70 44.11 3.08C43.50 2.46 42.66 2.09 41.72 2.09C41.13 2.09 40.56 2.24 40.05 2.53C39.55 2.83 39.13 3.26 38.84 3.78C38.70 4.02 38.78 4.31 39.00 4.44C39.24 4.56 39.52 4.48 39.65 4.24C39.87 3.88 40.18 3.57 40.54 3.36C40.89 3.15 41.29 3.04 41.72 3.04C42.39 3.04 42.99 3.32 43.41 3.75C43.86 4.19 44.13 4.80 44.13 5.47C44.13 6.16 43.86 6.78 43.41 7.21C42.99 7.66 42.39 7.92 41.72 7.92C41.29 7.92 40.88 7.80 40.54 7.59C40.18 7.39 39.87 7.07 39.65 6.71C39.52 6.47 39.24 6.40 39.00 6.52C38.78 6.66 38.70 6.93 38.84 7.17ZM56.50 9.63L56.50 9.63L56.50 5.49C56.50 4.87 55.57 4.87 55.57 5.49L55.57 9.35C52.86 10.68 49.34 9.10 49.28 5.57C49.22 2.23 52.33 0.39 55.62 1.46L55.62 1.46C56.28 1.68 56.57 0.78 55.90 0.57C51.98-0.69 48.27 1.60 48.34 5.59C48.41 9.84 52.75 11.97 56.25 10.04C56.41 9.95 56.50 9.80 56.50 9.63ZM55.76 2.51L55.76 2.51C55.13 2.24 54.42 2.11 53.59 2.14C49.15 2.30 49.35 8.83 53.61 8.83C53.96 8.83 54.60 8.82 54.60 8.32L54.60 5.49C54.60 4.87 53.65 4.87 53.65 5.49L53.65 7.88C50.53 7.91 50.43 3.19 53.62 3.07C54.29 3.05 54.88 3.15 55.38 3.37C55.94 3.61 56.32 2.77 55.76 2.51ZM61.91 4.07L61.91 4.07C62.12 4.42 62.54 4.45 62.75 4.09L64.65 0.90C64.78 0.66 64.71 0.38 64.48 0.25C64.27 0.11 63.98 0.18 63.84 0.41L62.33 2.97L60.82 0.41C60.69 0.18 60.40 0.11 60.19 0.25C59.95 0.38 59.88 0.66 60.02 0.90ZM66.14 0.41L66.14 0.41L62.86 5.63C62.82 5.71 62.79 5.81 62.79 5.89L62.79 10.32C62.79 10.58 63.01 10.79 63.27 10.79C63.52 10.79 63.74 10.58 63.74 10.32L63.74 6.01L66.92 0.90C67.06 0.67 66.99 0.39 66.78 0.25C66.56 0.11 66.28 0.17 66.14 0.41ZM61.87 10.32L61.87 10.32L61.87 5.88C61.87 5.78 61.84 5.70 61.78 5.60L58.53 0.41C58.39 0.17 58.10 0.11 57.89 0.25C57.67 0.39 57.61 0.67 57.74 0.90L60.93 6.01L60.93 10.32C60.93 10.58 61.14 10.79 61.40 10.79C61.66 10.79 61.87 10.58 61.87 10.32ZM78.30 2.23L78.30 2.23L75.95 2.23C75.70 2.23 75.49 2.44 75.49 2.70L75.49 10.16C75.49 10.43 75.70 10.64 75.95 10.64C76.22 10.64 76.43 10.43 76.43 10.16L76.43 3.15L78.30 3.15C78.55 3.15 78.75 2.95 78.75 2.70C78.75 2.44 78.55 2.23 78.30 2.23ZM71.76 1.29L71.76 1.29L78.30 1.29C78.55 1.29 78.75 1.08 78.75 0.83C78.75 0.56 78.55 0.36 78.30 0.36L71.76 0.36C71.50 0.36 71.29 0.56 71.29 0.83C71.29 1.08 71.50 1.29 71.76 1.29ZM71.76 3.15L71.76 3.15L73.61 3.15L73.61 10.16C73.61 10.43 73.84 10.64 74.09 10.64C74.35 10.64 74.56 10.43 74.56 10.16L74.56 2.70C74.56 2.44 74.35 2.23 74.09 2.23L71.76 2.23C71.50 2.23 71.29 2.44 71.29 2.70C71.29 2.95 71.50 3.15 71.76 3.15ZM86.44 2.23L86.44 2.23L84.08 2.23C83.83 2.23 83.62 2.44 83.62 2.70L83.62 10.16C83.62 10.43 83.83 10.64 84.08 10.64C84.35 10.64 84.56 10.43 84.56 10.16L84.56 3.15L86.44 3.15C86.69 3.15 86.88 2.95 86.88 2.70C86.88 2.44 86.69 2.23 86.44 2.23ZM79.90 1.29L79.90 1.29L86.44 1.29C86.69 1.29 86.88 1.08 86.88 0.83C86.88 0.56 86.69 0.36 86.44 0.36L79.90 0.36C79.63 0.36 79.42 0.56 79.42 0.83C79.42 1.08 79.63 1.29 79.90 1.29ZM79.90 3.15L79.90 3.15L81.75 3.15L81.75 10.16C81.75 10.43 81.97 10.64 82.22 10.64C82.49 10.64 82.70 10.43 82.70 10.16L82.70 2.70C82.70 2.44 82.49 2.23 82.22 2.23L79.90 2.23C79.63 2.23 79.42 2.44 79.42 2.70C79.42 2.95 79.63 3.15 79.90 3.15ZM94.57 2.23L94.57 2.23L92.22 2.23C91.97 2.23 91.76 2.44 91.76 2.70L91.76 10.16C91.76 10.43 91.97 10.64 92.22 10.64C92.48 10.64 92.69 10.43 92.69 10.16L92.69 3.15L94.57 3.15C94.82 3.15 95.02 2.95 95.02 2.70C95.02 2.44 94.82 2.23 94.57 2.23ZM88.03 1.29L88.03 1.29L94.57 1.29C94.82 1.29 95.02 1.08 95.02 0.83C95.02 0.56 94.82 0.36 94.57 0.36L88.03 0.36C87.77 0.36 87.56 0.56 87.56 0.83C87.56 1.08 87.77 1.29 88.03 1.29ZM88.03 3.15L88.03 3.15L89.88 3.15L89.88 10.16C89.88 10.43 90.10 10.64 90.36 10.64C90.62 10.64 90.83 10.43 90.83 10.16L90.83 2.70C90.83 2.44 90.62 2.23 90.36 2.23L88.03 2.23C87.77 2.23 87.56 2.44 87.56 2.70C87.56 2.95 87.77 3.15 88.03 3.15Z"></path></g><!----><!----></svg>